<svg width="907" height="133" viewBox="0 0 907 133" fill="none" xmlns="http://www.w3.org/2000/svg">
    <g clip-path="url(#clip0_5593_176646)">
        <path d="M67.4633 111.796H59.5395L6.76855 32.035H6.38346C6.54638 35.3541 6.67968 38.8806 6.76855 42.5849C6.85741 46.2892 6.90184 50.1862 6.90184 54.2757V111.796H0V20.5219H7.92379L60.5615 100.032H61.0798C60.9021 97.3941 60.7836 94.0009 60.6947 89.8669C60.6059 85.7328 60.5615 81.9248 60.5615 78.4279V20.5219H67.4633V111.796Z" fill="#555555"/>
        <path d="M117.42 42.5108C123.211 42.5108 128.069 43.8592 131.979 46.5411C135.889 49.223 138.837 52.9125 140.792 57.5948C142.747 62.2771 143.724 67.6558 143.724 73.7012V78.8132H95.1743C95.1743 87.7628 97.2627 94.638 101.439 99.4537C105.616 104.269 111.614 106.67 119.449 106.67C123.715 106.67 127.418 106.329 130.572 105.647C133.727 104.966 137.178 103.78 140.925 102.061V108.714C137.518 110.255 134.156 111.352 130.824 112.034C127.506 112.715 123.626 113.056 119.198 113.056C109.052 113.056 101.262 109.944 95.8112 103.721C90.3608 97.4978 87.6356 89.0223 87.6356 78.2797C87.6356 71.3749 88.8057 65.2257 91.1458 59.8026C93.4859 54.3943 96.8776 50.1565 101.306 47.0893C105.734 44.0222 111.096 42.4812 117.405 42.4812L117.42 42.5108ZM117.287 48.6452C111.066 48.6452 106.016 50.7344 102.15 54.9129C98.2698 59.0914 95.9889 65.0183 95.3076 72.6788H136.067C136.067 65.5221 134.556 59.7285 131.535 55.2981C128.514 50.8678 123.759 48.6452 117.287 48.6452Z" fill="#555555"/>
        <path d="M181.314 106.936C183.18 106.936 185.002 106.788 186.75 106.492C188.497 106.196 189.964 105.825 191.163 105.41V111.293C189.801 111.796 188.201 112.226 186.365 112.567C184.528 112.908 182.514 113.071 180.292 113.071C174.664 113.071 170.324 111.47 167.259 108.285C164.193 105.084 162.652 99.9574 162.652 92.8748V49.6675H152.551V45.578L162.652 43.2813L165.215 27.5602H169.821V43.7999H190.778V49.6824H169.821V92.6377C169.821 102.18 173.657 106.951 181.314 106.951V106.936Z" fill="#555555"/>
        <path d="M212.743 14.6395V45.8299C212.743 49.2379 212.609 52.4829 212.358 55.55H212.861C214.564 51.8013 217.378 48.6896 221.289 46.2151C225.199 43.7407 230.057 42.5108 235.848 42.5108C243.594 42.5108 249.533 44.5112 253.665 48.5118C257.797 52.5125 259.856 58.7802 259.856 67.3001V111.782H252.569V67.8039C252.569 61.3288 251.103 56.5576 248.155 53.4904C245.208 50.4232 240.898 48.8823 235.181 48.8823C220.192 48.8823 212.698 57.4911 212.698 74.7088V111.782H205.545V14.6395H212.698H212.743Z" fill="#555555"/>
        <path d="M307.547 42.5108C313.338 42.5108 318.196 43.8592 322.106 46.5411C326.016 49.223 328.963 52.9125 330.918 57.5948C332.873 62.2771 333.851 67.6558 333.851 73.7012V78.8132H285.301C285.301 87.7628 287.389 94.638 291.566 99.4537C295.742 104.269 301.741 106.67 309.576 106.67C313.841 106.67 317.544 106.329 320.699 105.647C323.853 104.966 327.304 103.78 331.051 102.061V108.714C327.645 110.255 324.283 111.352 320.951 112.034C317.633 112.715 313.752 113.056 309.324 113.056C299.179 113.056 291.388 109.944 285.938 103.721C280.487 97.4978 277.762 89.0223 277.762 78.2797C277.762 71.3749 278.932 65.2257 281.272 59.8026C283.612 54.3943 287.004 50.1565 291.433 47.0893C295.861 44.0222 301.222 42.4812 307.532 42.4812L307.547 42.5108ZM307.413 48.6452C301.193 48.6452 296.142 50.7344 292.277 54.9129C288.396 59.0914 286.115 65.0183 285.434 72.6788H326.194C326.194 65.5221 324.683 59.7285 321.661 55.2981C318.64 50.8678 313.886 48.6452 307.413 48.6452Z" fill="#555555"/>
        <path d="M380.135 42.6442C383.719 42.6442 386.785 43.0294 389.332 43.7999L388.31 50.4529C386.948 50.1121 385.585 49.8602 384.222 49.6824C382.86 49.5194 381.408 49.4305 379.883 49.4305C373.573 49.4305 368.612 51.7123 364.998 56.2761C361.369 60.8398 359.562 66.9149 359.562 74.4865V111.811H352.275V43.7851H358.407L359.177 56.5724H359.562C361.266 52.7347 363.843 49.4601 367.294 46.7337C370.745 44.0074 375.025 42.6442 380.135 42.6442Z" fill="#555555"/>
        <path d="M409.904 111.796H402.617V14.6395H409.904V111.796Z" fill="#555555"/>
        <path d="M456.277 42.6442C463.949 42.6442 469.651 44.526 473.398 48.2747C477.145 52.0235 479.026 57.9504 479.026 66.0407V111.811H473.532L472.125 100.313H471.873C469.488 104.151 466.511 107.233 462.927 109.574C459.343 111.915 454.411 113.086 448.101 113.086C441.792 113.086 436.49 111.47 432.698 108.225C428.907 104.995 427.011 100.254 427.011 94.0305C427.011 87.3035 429.751 82.1471 435.246 78.5613C440.74 74.9755 448.812 72.9752 459.461 72.5603L471.858 71.9231V67.1964C471.858 60.4694 470.51 55.713 467.829 52.9422C465.149 50.1713 461.209 48.7933 456.01 48.7933C452.515 48.7933 449.153 49.2379 445.909 50.1417C442.666 51.0308 439.437 52.3347 436.194 54.0387L433.898 48.1562C437.053 46.5411 440.548 45.2224 444.369 44.2C448.205 43.1776 452.16 42.659 456.247 42.659L456.277 42.6442ZM471.873 77.5389L460.38 78.0575C451.686 78.3983 445.213 79.8652 440.963 82.473C436.697 85.0809 434.579 88.9778 434.579 94.1639C434.579 98.3424 435.897 101.513 438.534 103.691C441.17 105.87 444.799 106.951 449.39 106.951C456.455 106.951 461.935 104.951 465.815 100.95C469.696 96.9495 471.71 91.319 471.888 84.0733V77.5537L471.873 77.5389Z" fill="#555555"/>
        <path d="M531.161 42.5108C538.907 42.5108 544.831 44.5111 548.919 48.5118C553.006 52.5125 555.05 58.7802 555.05 67.3001V111.782H547.763V67.8039C547.763 61.3288 546.297 56.5576 543.35 53.4904C540.402 50.4232 536.093 48.8822 530.376 48.8822C515.387 48.8822 507.893 57.4911 507.893 74.7088V111.782H500.739V43.7851H506.619L507.641 55.55H508.159C509.951 51.8012 512.78 48.6896 516.661 46.2151C520.541 43.7406 525.37 42.5108 531.161 42.5108Z" fill="#555555"/>
        <path d="M601.305 113.071C592.196 113.071 585.176 110.152 580.288 104.314C575.386 98.4757 572.942 89.8965 572.942 78.5613C572.942 67.2261 575.519 57.8467 580.673 51.7124C585.827 45.578 592.922 42.5108 601.942 42.5108C607.644 42.5108 612.294 43.7407 615.864 46.2151C619.448 48.6896 622.084 51.8013 623.787 55.55H624.306C624.217 53.5052 624.113 51.253 623.98 48.7785C623.847 46.304 623.787 44.1407 623.787 42.2589V14.6395H631.074V111.796H625.194L624.173 100.032H623.787C621.995 103.617 619.315 106.685 615.73 109.233C612.146 111.796 607.333 113.071 601.29 113.071H601.305ZM602.193 106.803C610.028 106.803 615.612 104.417 618.93 99.6463C622.247 94.8751 623.906 88.0147 623.906 79.0651V77.7908C623.906 68.4114 622.247 61.2399 618.93 56.2464C615.612 51.253 610.191 48.7637 602.697 48.7637C595.203 48.7637 589.826 51.3419 586.079 56.4983C582.332 61.6548 580.451 69.0041 580.451 78.5465C580.451 88.0888 582.243 94.8603 585.813 99.6315C589.397 104.403 594.847 106.788 602.164 106.788L602.193 106.803Z" fill="#555555"/>
        <path d="M696.109 93.7786C696.109 100.002 693.828 104.773 689.266 108.092C684.704 111.411 678.217 113.071 669.775 113.071C665.006 113.071 660.814 112.641 657.186 111.796C653.557 110.952 650.521 109.929 648.048 108.729V101.691C651.025 103.232 654.431 104.477 658.267 105.455C662.103 106.433 666.013 106.922 670.027 106.922C676.677 106.922 681.476 105.795 684.467 103.528C687.444 101.276 688.94 98.1794 688.94 94.2676C688.94 90.3558 687.385 87.6443 684.275 85.6439C681.165 83.6436 676.499 81.5692 670.279 79.4503C666.102 77.9982 662.414 76.5609 659.23 75.1088C656.031 73.6567 653.542 71.7601 651.75 69.419C649.958 67.0779 649.069 63.907 649.069 59.8915C649.069 54.4387 651.291 50.1713 655.72 47.1042C660.148 44.037 666.072 42.496 673.478 42.496C677.566 42.496 681.372 42.896 684.912 43.711C688.451 44.5259 691.665 45.5187 694.554 46.7189L691.991 52.7199C689.355 51.5345 686.363 50.5418 683.046 49.7861C679.728 49.0304 676.395 48.6303 673.078 48.6303C667.716 48.6303 663.54 49.5638 660.563 51.4456C657.586 53.3274 656.09 56.0538 656.09 59.6248C656.09 62.3511 656.816 64.4996 658.267 66.0851C659.719 67.6705 661.807 69.0189 664.532 70.1747C667.257 71.3304 670.575 72.5899 674.5 73.9531C678.499 75.3163 682.142 76.7684 685.43 78.2945C688.703 79.8355 691.31 81.7914 693.221 84.177C695.131 86.5626 696.094 89.7631 696.094 93.7638L696.109 93.7786Z" fill="#555555"/>
        <path d="M882.844 0H734.469C721.127 0 710.312 10.8199 710.312 24.167V108.833C710.312 122.18 721.127 133 734.469 133H882.844C896.185 133 907 122.18 907 108.833V24.167C907 10.8199 896.185 0 882.844 0Z" fill="#555555"/>
        <path d="M794.601 40.9846C794.601 47.2968 792.705 52.3199 788.913 56.0686C785.122 59.8174 780.456 62.3808 774.917 63.744V64.1292C782.16 65.0627 787.699 67.3298 791.535 70.9007C795.371 74.4865 797.281 79.2577 797.281 85.2142C797.281 90.504 795.978 95.2455 793.386 99.4685C790.779 103.691 786.781 107.01 781.375 109.441C775.969 111.871 769.008 113.086 760.477 113.086C750.598 113.086 741.815 111.426 734.158 108.107V91.7487C738.083 93.7045 742.17 95.2011 746.421 96.2235C750.687 97.2459 754.685 97.7645 758.433 97.7645C765.334 97.7645 770.163 96.5791 772.932 94.1787C775.702 91.7931 777.079 88.4296 777.079 84.0733C777.079 81.5988 776.443 79.4651 775.169 77.6871C773.895 75.8942 771.659 74.5606 768.459 73.6568C765.26 72.7677 760.817 72.3084 755.1 72.3084H748.198V57.4763H755.233C760.862 57.4763 765.142 56.9428 768.074 55.876C771.007 54.8092 773.006 53.3571 774.073 51.5345C775.139 49.6972 775.672 47.5931 775.672 45.2076C775.672 41.9774 774.665 39.4288 772.666 37.6063C770.666 35.7689 767.319 34.8651 762.639 34.8651C758.299 34.8651 754.508 35.6356 751.264 37.1618C748.021 38.7028 745.34 40.14 743.207 41.5032L734.261 28.2121C737.846 25.6487 742.037 23.5299 746.851 21.8259C751.664 20.1219 757.396 19.2625 764.031 19.2625C773.406 19.2625 780.841 21.1591 786.321 24.9523C791.816 28.7455 794.556 34.0946 794.556 40.9994L794.601 40.9846Z" fill="white"/>
        <path d="M889.538 65.2702C889.538 80.695 885.154 92.3117 876.371 100.106C867.603 107.9 855.369 111.796 839.7 111.796H813.884V20.5219H842.499C852.037 20.5219 860.331 22.2259 867.351 25.6339C874.387 29.0419 879.837 34.0649 883.702 40.7179C887.583 47.3709 889.523 55.55 889.523 65.2553L889.538 65.2702ZM869.484 65.7888C869.484 55.7278 867.263 48.3192 862.834 43.548C858.406 38.7768 851.978 36.3913 843.536 36.3913H833.183V95.8382H841.492C860.153 95.8382 869.469 85.8217 869.469 65.8036L869.484 65.7888Z" fill="white"/>
    </g>
    <defs>
        <clipPath id="clip0_5593_176646">
            <rect width="907" height="133" fill="white"/>
        </clipPath>
    </defs>
</svg>
