<svg viewBox="0 0 430 512" fill="none" xmlns="http://www.w3.org/2000/svg">
<path d="M211.294 82.231C211.294 78.3502 214.44 75.2042 218.321 75.2042H422.665C426.546 75.2042 429.692 78.3502 429.692 82.231V171.195C429.692 175.076 426.546 178.222 422.665 178.222H218.321C214.44 178.222 211.294 175.076 211.294 171.195V82.231Z" fill="#E29D9D"/>
<path fill-rule="evenodd" clip-rule="evenodd" d="M422.665 82.231H218.321V171.195L422.665 171.195V82.231ZM218.321 75.2042C214.44 75.2042 211.294 78.3502 211.294 82.231V171.195C211.294 175.076 214.44 178.222 218.321 178.222H422.665C426.546 178.222 429.692 175.076 429.692 171.195V82.231C429.692 78.3502 426.546 75.2042 422.665 75.2042H218.321Z" fill="#555555"/>
<path d="M209.648 78.4532C209.648 74.5724 212.794 71.4263 216.675 71.4263H421.019C424.9 71.4263 428.046 74.5724 428.046 78.4532V167.417C428.046 171.298 424.9 174.444 421.019 174.444H216.675C212.794 174.444 209.648 171.298 209.648 167.417V78.4532Z" fill="#E29D9D"/>
<path fill-rule="evenodd" clip-rule="evenodd" d="M421.019 78.4532H216.675V167.417L421.019 167.417V78.4532ZM216.675 71.4263C212.794 71.4263 209.648 74.5724 209.648 78.4532V167.417C209.648 171.298 212.794 174.444 216.675 174.444H421.019C424.9 174.444 428.046 171.298 428.046 167.417V78.4532C428.046 74.5724 424.9 71.4263 421.019 71.4263H216.675Z" fill="#555555"/>
<path d="M208.002 74.6758C208.002 70.795 211.148 67.649 215.028 67.649H419.373C423.253 67.649 426.399 70.795 426.399 74.6758V163.64C426.399 167.521 423.253 170.667 419.373 170.667H215.028C211.148 170.667 208.002 167.521 208.002 163.64V74.6758Z" fill="#E29D9D"/>
<path fill-rule="evenodd" clip-rule="evenodd" d="M419.373 74.6758H215.028V163.64L419.373 163.64V74.6758ZM215.028 67.649C211.148 67.649 208.002 70.795 208.002 74.6758V163.64C208.002 167.521 211.148 170.667 215.028 170.667H419.373C423.253 170.667 426.399 167.521 426.399 163.64V74.6758C426.399 70.795 423.253 67.649 419.373 67.649H215.028Z" fill="#555555"/>
<path d="M206.355 70.898C206.355 67.0172 209.501 63.8712 213.382 63.8712H417.726C421.607 63.8712 424.753 67.0172 424.753 70.898V159.862C424.753 163.743 421.607 166.889 417.726 166.889H213.382C209.501 166.889 206.355 163.743 206.355 159.862V70.898Z" fill="#E29D9D"/>
<path fill-rule="evenodd" clip-rule="evenodd" d="M417.726 70.898H213.382V159.862L417.726 159.862V70.898ZM213.382 63.8712C209.501 63.8712 206.355 67.0172 206.355 70.898V159.862C206.355 163.743 209.501 166.889 213.382 166.889H417.726C421.607 166.889 424.753 163.743 424.753 159.862V70.898C424.753 67.0172 421.607 63.8712 417.726 63.8712H213.382Z" fill="#555555"/>
<path d="M287.527 45.1448C287.527 41.264 290.673 38.118 294.554 38.118H397.94C401.821 38.118 404.967 41.264 404.967 45.1448V136.169C404.967 140.05 401.821 143.196 397.94 143.196H294.554C290.673 143.196 287.527 140.05 287.527 136.169V45.1448Z" fill="#E29D9D"/>
<path fill-rule="evenodd" clip-rule="evenodd" d="M397.94 45.1448H294.554V136.169L397.94 136.169L397.94 45.1448ZM294.554 38.118C290.673 38.118 287.527 41.264 287.527 45.1448V136.169C287.527 140.05 290.673 143.196 294.554 143.196H397.94C401.821 143.196 404.967 140.05 404.967 136.169V45.1448C404.967 41.264 401.821 38.118 397.94 38.118H294.554Z" fill="#555555"/>
<path d="M285.881 41.367C285.881 37.4862 289.027 34.3401 292.908 34.3401H396.294C400.175 34.3401 403.321 37.4862 403.321 41.367V132.391C403.321 136.272 400.175 139.418 396.294 139.418H292.908C289.027 139.418 285.881 136.272 285.881 132.392V41.367Z" fill="#E29D9D"/>
<path fill-rule="evenodd" clip-rule="evenodd" d="M396.294 41.367H292.908V132.392L396.294 132.391L396.294 41.367ZM292.908 34.3401C289.027 34.3401 285.881 37.4862 285.881 41.367V132.392C285.881 136.272 289.027 139.418 292.908 139.418H396.294C400.175 139.418 403.321 136.272 403.321 132.391V41.367C403.321 37.4862 400.175 34.3401 396.294 34.3401H292.908Z" fill="#555555"/>
<path d="M284.235 37.5896C284.235 33.7088 287.381 30.5628 291.261 30.5628H394.648C398.529 30.5628 401.675 33.7088 401.675 37.5896V128.614C401.675 132.495 398.529 135.641 394.648 135.641H291.261C287.381 135.641 284.235 132.495 284.235 128.614V37.5896Z" fill="#E29D9D"/>
<path fill-rule="evenodd" clip-rule="evenodd" d="M394.648 37.5896H291.261V128.614L394.648 128.614L394.648 37.5896ZM291.261 30.5628C287.381 30.5628 284.235 33.7088 284.235 37.5896V128.614C284.235 132.495 287.381 135.641 291.261 135.641H394.648C398.529 135.641 401.675 132.495 401.675 128.614V37.5896C401.675 33.7088 398.529 30.5628 394.648 30.5628H291.261Z" fill="#555555"/>
<path d="M282.588 33.8117C282.588 29.9309 285.734 26.7849 289.615 26.7849H393.002C396.883 26.7849 400.029 29.9309 400.029 33.8117V124.836C400.029 128.717 396.883 131.863 393.002 131.863H289.615C285.734 131.863 282.588 128.717 282.588 124.836V33.8117Z" fill="#E29D9D"/>
<path fill-rule="evenodd" clip-rule="evenodd" d="M393.002 33.8117H289.615V124.836L393.002 124.836L393.002 33.8117ZM289.615 26.7849C285.734 26.7849 282.588 29.9309 282.588 33.8117V124.836C282.588 128.717 285.734 131.863 289.615 131.863H393.002C396.883 131.863 400.029 128.717 400.029 124.836V33.8117C400.029 29.9309 396.883 26.7849 393.002 26.7849H289.615Z" fill="#555555"/>
<path d="M250.44 206.563C250.44 202.683 253.587 199.537 257.467 199.537H397.94C401.821 199.537 404.967 202.683 404.967 206.563V346.362C404.967 350.242 401.821 353.388 397.94 353.388H257.467C253.586 353.388 250.44 350.242 250.44 346.362V206.563Z" fill="white"/>
<path fill-rule="evenodd" clip-rule="evenodd" d="M397.94 206.563H257.467L257.467 346.362H397.94L397.94 206.563ZM257.467 199.537C253.587 199.537 250.44 202.683 250.44 206.563V346.362C250.44 350.242 253.586 353.388 257.467 353.388H397.94C401.821 353.388 404.967 350.242 404.967 346.362V206.563C404.967 202.683 401.821 199.537 397.94 199.537H257.467Z" fill="#555555"/>
<path d="M248.794 201.862C248.794 197.981 251.94 194.835 255.821 194.835H396.294C400.175 194.835 403.321 197.981 403.321 201.862V341.66C403.321 345.541 400.175 348.687 396.294 348.687H255.821C251.94 348.687 248.794 345.541 248.794 341.66V201.862Z" fill="white"/>
<path fill-rule="evenodd" clip-rule="evenodd" d="M396.294 201.862H255.821L255.821 341.66H396.294L396.294 201.862ZM255.821 194.835C251.94 194.835 248.794 197.981 248.794 201.862V341.66C248.794 345.541 251.94 348.687 255.821 348.687H396.294C400.175 348.687 403.321 345.541 403.321 341.66V201.862C403.321 197.981 400.175 194.835 396.294 194.835H255.821Z" fill="#555555"/>
<path d="M247.148 197.161C247.148 193.28 250.294 190.134 254.175 190.134H394.648C398.529 190.134 401.675 193.28 401.675 197.161V336.959C401.675 340.84 398.529 343.986 394.648 343.986H254.175C250.294 343.986 247.148 340.84 247.148 336.959V197.161Z" fill="white"/>
<path fill-rule="evenodd" clip-rule="evenodd" d="M394.648 197.161H254.175L254.175 336.959H394.648L394.648 197.161ZM254.175 190.134C250.294 190.134 247.148 193.28 247.148 197.161V336.959C247.148 340.84 250.294 343.986 254.175 343.986H394.648C398.529 343.986 401.675 340.84 401.675 336.959V197.161C401.675 193.28 398.529 190.134 394.648 190.134H254.175Z" fill="#555555"/>
<path d="M245.502 192.459C245.502 188.578 248.648 185.432 252.529 185.432H393.002C396.883 185.432 400.029 188.578 400.029 192.459V332.257C400.029 336.138 396.883 339.284 393.002 339.284H252.529C248.648 339.284 245.502 336.138 245.502 332.257V192.459Z" fill="white"/>
<path fill-rule="evenodd" clip-rule="evenodd" d="M393.002 192.459H252.529L252.529 332.257H393.002L393.002 192.459ZM252.529 185.432C248.648 185.432 245.502 188.578 245.502 192.459V332.257C245.502 336.138 248.648 339.284 252.529 339.284H393.002C396.883 339.284 400.029 336.138 400.029 332.257V192.459C400.029 188.578 396.883 185.432 393.002 185.432H252.529Z" fill="#555555"/>
<path d="M238.079 156.404C238.079 152.523 241.225 149.377 245.106 149.377H352.613C356.494 149.377 359.64 152.523 359.64 156.404V261.851C359.64 265.732 356.494 268.878 352.613 268.878H245.106C241.225 268.878 238.079 265.732 238.079 261.851V156.404Z" fill="white"/>
<path fill-rule="evenodd" clip-rule="evenodd" d="M352.613 156.404H245.106V261.851L352.613 261.851V156.404ZM245.106 149.377C241.225 149.377 238.079 152.523 238.079 156.404V261.851C238.079 265.732 241.225 268.878 245.106 268.878H352.613C356.494 268.878 359.64 265.732 359.64 261.851V156.404C359.64 152.523 356.494 149.377 352.613 149.377H245.106Z" fill="#555555"/>
<path d="M236.433 152.626C236.433 148.745 239.579 145.599 243.46 145.599H350.967C354.848 145.599 357.994 148.745 357.994 152.626V258.073C357.994 261.954 354.848 265.1 350.967 265.1H243.46C239.579 265.1 236.433 261.954 236.433 258.073V152.626Z" fill="white"/>
<path fill-rule="evenodd" clip-rule="evenodd" d="M350.967 152.626H243.46V258.073L350.967 258.073V152.626ZM243.46 145.599C239.579 145.599 236.433 148.745 236.433 152.626V258.073C236.433 261.954 239.579 265.1 243.46 265.1H350.967C354.848 265.1 357.994 261.954 357.994 258.073V152.626C357.994 148.745 354.848 145.599 350.967 145.599H243.46Z" fill="#555555"/>
<path d="M234.787 148.849C234.787 144.968 237.933 141.822 241.814 141.822H349.321C353.202 141.822 356.348 144.968 356.348 148.849V254.296C356.348 258.177 353.202 261.323 349.321 261.323H241.814C237.933 261.323 234.787 258.177 234.787 254.296V148.849Z" fill="white"/>
<path fill-rule="evenodd" clip-rule="evenodd" d="M349.321 148.849H241.814V254.296L349.321 254.296V148.849ZM241.814 141.822C237.933 141.822 234.787 144.968 234.787 148.849V254.296C234.787 258.177 237.933 261.323 241.814 261.323H349.321C353.202 261.323 356.348 258.177 356.348 254.296V148.849C356.348 144.968 353.202 141.822 349.321 141.822H241.814Z" fill="#555555"/>
<path d="M233.141 145.071C233.141 141.19 236.287 138.044 240.167 138.044H347.675C351.556 138.044 354.702 141.19 354.702 145.071V250.518C354.702 254.399 351.556 257.545 347.675 257.545H240.167C236.287 257.545 233.141 254.399 233.141 250.518V145.071Z" fill="white"/>
<path fill-rule="evenodd" clip-rule="evenodd" d="M347.675 145.071H240.167V250.518L347.675 250.518V145.071ZM240.167 138.044C236.287 138.044 233.141 141.19 233.141 145.071V250.518C233.141 254.399 236.287 257.545 240.167 257.545H347.675C351.556 257.545 354.702 254.399 354.702 250.518V145.071C354.702 141.19 351.556 138.044 347.675 138.044H240.167Z" fill="#555555"/>
<path d="M104.155 238.652C104.155 234.771 107.301 231.625 111.182 231.625H299.044C302.924 231.625 306.07 234.771 306.07 238.652V347.234C306.07 351.115 302.924 354.261 299.044 354.261H111.182C107.301 354.261 104.155 351.115 104.155 347.234V238.652Z" fill="white"/>
<path fill-rule="evenodd" clip-rule="evenodd" d="M299.044 238.652H111.182V347.234H299.044V238.652ZM111.182 231.625C107.301 231.625 104.155 234.771 104.155 238.652V347.234C104.155 351.115 107.301 354.261 111.182 354.261H299.044C302.924 354.261 306.07 351.115 306.07 347.234V238.652C306.07 234.771 302.924 231.625 299.044 231.625H111.182Z" fill="#555555"/>
<path d="M102.509 234.243C102.509 230.362 105.655 227.216 109.536 227.216H297.398C301.278 227.216 304.424 230.362 304.424 234.243V342.825C304.424 346.706 301.278 349.852 297.398 349.852H109.536C105.655 349.852 102.509 346.706 102.509 342.825V234.243Z" fill="white"/>
<path fill-rule="evenodd" clip-rule="evenodd" d="M297.398 234.243H109.536V342.825H297.398V234.243ZM109.536 227.216C105.655 227.216 102.509 230.362 102.509 234.243V342.825C102.509 346.706 105.655 349.852 109.536 349.852H297.398C301.278 349.852 304.424 346.706 304.424 342.825V234.243C304.424 230.362 301.278 227.216 297.398 227.216H109.536Z" fill="#555555"/>
<path d="M100.863 229.834C100.863 225.953 104.009 222.807 107.89 222.807H295.751C299.632 222.807 302.778 225.953 302.778 229.834V338.416C302.778 342.297 299.632 345.443 295.751 345.443H107.89C104.009 345.443 100.863 342.297 100.863 338.416V229.834Z" fill="white"/>
<path fill-rule="evenodd" clip-rule="evenodd" d="M295.751 229.834H107.89V338.416H295.751V229.834ZM107.89 222.807C104.009 222.807 100.863 225.953 100.863 229.834V338.416C100.863 342.297 104.009 345.443 107.89 345.443H295.751C299.632 345.443 302.778 342.297 302.778 338.416V229.834C302.778 225.953 299.632 222.807 295.751 222.807H107.89Z" fill="#555555"/>
<path d="M99.2168 225.425C99.2168 221.544 102.363 218.398 106.244 218.398H294.105C297.986 218.398 301.132 221.544 301.132 225.425V334.007C301.132 337.888 297.986 341.034 294.105 341.034H106.244C102.363 341.034 99.2168 337.888 99.2168 334.007V225.425Z" fill="white"/>
<path fill-rule="evenodd" clip-rule="evenodd" d="M294.105 225.425H106.244V334.007H294.105V225.425ZM106.244 218.398C102.363 218.398 99.2168 221.544 99.2168 225.425V334.007C99.2168 337.888 102.363 341.034 106.244 341.034H294.105C297.986 341.034 301.132 337.888 301.132 334.007V225.425C301.132 221.544 297.986 218.398 294.105 218.398H106.244Z" fill="#555555"/>
<path d="M5.25802 364.499C5.25802 360.619 8.40405 357.473 12.2849 357.473H82.7058C86.5867 357.473 89.7327 360.619 89.7327 364.499V436.981C89.7327 440.862 86.5866 444.008 82.7058 444.008H12.2849C8.40403 444.008 5.25802 440.862 5.25802 436.981V364.499Z" fill="#8AAADB"/>
<path fill-rule="evenodd" clip-rule="evenodd" d="M82.7058 364.499L12.2849 364.499L12.2849 436.981L82.7058 436.981L82.7058 364.499ZM12.2849 357.473C8.40405 357.473 5.25802 360.619 5.25802 364.499V436.981C5.25802 440.862 8.40403 444.008 12.2849 444.008H82.7058C86.5866 444.008 89.7327 440.862 89.7327 436.981V364.499C89.7327 360.619 86.5867 357.473 82.7058 357.473H12.2849Z" fill="#555555"/>
<path d="M5.25802 364.499C5.25802 360.619 8.40405 357.473 12.2849 357.473H82.7058C86.5867 357.473 89.7327 360.619 89.7327 364.499V436.981C89.7327 440.862 86.5866 444.008 82.7058 444.008H12.2849C8.40403 444.008 5.25802 440.862 5.25802 436.981V364.499Z" fill="#8AAADB"/>
<path fill-rule="evenodd" clip-rule="evenodd" d="M82.7058 364.499L12.2849 364.499L12.2849 436.981L82.7058 436.981L82.7058 364.499ZM12.2849 357.473C8.40405 357.473 5.25802 360.619 5.25802 364.499V436.981C5.25802 440.862 8.40403 444.008 12.2849 444.008H82.7058C86.5866 444.008 89.7327 440.862 89.7327 436.981V364.499C89.7327 360.619 86.5867 357.473 82.7058 357.473H12.2849Z" fill="#555555"/>
<path d="M3.61178 360.722C3.61178 356.841 6.75781 353.695 10.6386 353.695H81.0596C84.9404 353.695 88.0864 356.841 88.0864 360.722V433.203C88.0864 437.084 84.9404 440.23 81.0596 440.23H10.6386C6.7578 440.23 3.61178 437.084 3.61178 433.203V360.722Z" fill="#8AAADB"/>
<path fill-rule="evenodd" clip-rule="evenodd" d="M81.0596 360.722L10.6386 360.722L10.6386 433.203L81.0596 433.203L81.0596 360.722ZM10.6386 353.695C6.75781 353.695 3.61178 356.841 3.61178 360.722V433.203C3.61178 437.084 6.7578 440.23 10.6386 440.23H81.0596C84.9404 440.23 88.0864 437.084 88.0864 433.203V360.722C88.0864 356.841 84.9404 353.695 81.0596 353.695H10.6386Z" fill="#555555"/>
<path d="M1.96554 356.944C1.96554 353.063 5.11157 349.917 8.99239 349.917H79.4134C83.2942 349.917 86.4402 353.063 86.4402 356.944V429.426C86.4402 433.306 83.2942 436.452 79.4133 436.452H8.99237C5.11156 436.452 1.96554 433.306 1.96554 429.426V356.944Z" fill="#8AAADB"/>
<path fill-rule="evenodd" clip-rule="evenodd" d="M79.4134 356.944L8.99239 356.944L8.99237 429.426L79.4133 429.426L79.4134 356.944ZM8.99239 349.917C5.11157 349.917 1.96554 353.063 1.96554 356.944V429.426C1.96554 433.306 5.11156 436.452 8.99237 436.452H79.4133C83.2942 436.452 86.4402 433.306 86.4402 429.426V356.944C86.4402 353.063 83.2942 349.917 79.4134 349.917H8.99239Z" fill="#555555"/>
<path d="M0.319336 353.167C0.319336 349.286 3.46536 346.14 7.34618 346.14H77.7671C81.648 346.14 84.794 349.286 84.794 353.167V425.648C84.794 429.529 81.648 432.675 77.7671 432.675H7.34616C3.46535 432.675 0.319336 429.529 0.319336 425.648V353.167Z" fill="#8AAADB"/>
<path fill-rule="evenodd" clip-rule="evenodd" d="M77.7671 353.167L7.34618 353.167L7.34616 425.648L77.7671 425.648L77.7671 353.167ZM7.34618 346.14C3.46536 346.14 0.319336 349.286 0.319336 353.167V425.648C0.319336 429.529 3.46535 432.675 7.34616 432.675H77.7671C81.648 432.675 84.794 429.529 84.794 425.648V353.167C84.794 349.286 81.648 346.14 77.7671 346.14H7.34618Z" fill="#555555"/>
<path d="M207.735 323.949C207.735 320.068 210.881 316.922 214.762 316.922H311.967C315.848 316.922 318.994 320.068 318.994 323.949V412.913C318.994 416.793 315.848 419.94 311.967 419.94H214.762C210.881 419.94 207.735 416.794 207.735 412.913V323.949Z" fill="#8AAADB"/>
<path fill-rule="evenodd" clip-rule="evenodd" d="M311.967 323.949H214.762V412.913L311.967 412.913V323.949ZM214.762 316.922C210.881 316.922 207.735 320.068 207.735 323.949V412.913C207.735 416.794 210.881 419.94 214.762 419.94H311.967C315.848 419.94 318.994 416.793 318.994 412.913V323.949C318.994 320.068 315.848 316.922 311.967 316.922H214.762Z" fill="#555555"/>
<path d="M206.089 320.171C206.089 316.29 209.235 313.144 213.116 313.144H310.321C314.202 313.144 317.348 316.29 317.348 320.171V409.135C317.348 413.016 314.202 416.162 310.321 416.162H213.116C209.235 416.162 206.089 413.016 206.089 409.135V320.171Z" fill="#8AAADB"/>
<path fill-rule="evenodd" clip-rule="evenodd" d="M310.321 320.171H213.116V409.135L310.321 409.135V320.171ZM213.116 313.144C209.235 313.144 206.089 316.29 206.089 320.171V409.135C206.089 413.016 209.235 416.162 213.116 416.162H310.321C314.202 416.162 317.348 413.016 317.348 409.135V320.171C317.348 316.29 314.202 313.144 310.321 313.144H213.116Z" fill="#555555"/>
<path d="M204.442 316.393C204.442 312.512 207.588 309.366 211.469 309.366H308.675C312.556 309.366 315.702 312.512 315.702 316.393V405.357C315.702 409.238 312.556 412.384 308.675 412.384H211.469C207.588 412.384 204.442 409.238 204.442 405.357V316.393Z" fill="#8AAADB"/>
<path fill-rule="evenodd" clip-rule="evenodd" d="M308.675 316.393H211.469L211.469 405.357L308.675 405.357V316.393ZM211.469 309.366C207.588 309.366 204.442 312.512 204.442 316.393V405.357C204.442 409.238 207.588 412.384 211.469 412.384H308.675C312.556 412.384 315.702 409.238 315.702 405.357V316.393C315.702 312.512 312.556 309.366 308.675 309.366H211.469Z" fill="#555555"/>
<path d="M202.796 312.615C202.796 308.735 205.942 305.589 209.823 305.589H307.029C310.91 305.589 314.056 308.735 314.056 312.615V401.58C314.056 405.46 310.91 408.606 307.029 408.606H209.823C205.942 408.606 202.796 405.46 202.796 401.58V312.615Z" fill="#8AAADB"/>
<path fill-rule="evenodd" clip-rule="evenodd" d="M307.029 312.615H209.823L209.823 401.58L307.029 401.58V312.615ZM209.823 305.589C205.942 305.589 202.796 308.735 202.796 312.615V401.58C202.796 405.46 205.942 408.606 209.823 408.606H307.029C310.91 408.606 314.056 405.46 314.056 401.58V312.615C314.056 308.735 310.91 305.589 307.029 305.589H209.823Z" fill="#555555"/>
<path d="M254.562 422.19C254.562 418.309 257.708 415.163 261.589 415.163H305.225C309.106 415.163 312.252 418.309 312.252 422.19V504.973C312.252 508.854 309.106 512 305.225 512H261.589C257.708 512 254.562 508.854 254.562 504.973V422.19Z" fill="#8AAADB"/>
<path fill-rule="evenodd" clip-rule="evenodd" d="M305.225 422.19H261.589V504.973L305.225 504.973V422.19ZM261.589 415.163C257.708 415.163 254.562 418.309 254.562 422.19V504.973C254.562 508.854 257.708 512 261.589 512H305.225C309.106 512 312.252 508.854 312.252 504.973V422.19C312.252 418.309 309.106 415.163 305.225 415.163H261.589Z" fill="#555555"/>
<path d="M252.093 416.524C252.093 412.643 255.239 409.497 259.12 409.497H302.756C306.637 409.497 309.783 412.643 309.783 416.524V499.307C309.783 503.188 306.637 506.334 302.756 506.334H259.12C255.239 506.334 252.093 503.188 252.093 499.307V416.524Z" fill="#8AAADB"/>
<path fill-rule="evenodd" clip-rule="evenodd" d="M302.756 416.524H259.12V499.307L302.756 499.307V416.524ZM259.12 409.497C255.239 409.497 252.093 412.643 252.093 416.524V499.307C252.093 503.188 255.239 506.334 259.12 506.334H302.756C306.637 506.334 309.783 503.188 309.783 499.307V416.524C309.783 412.643 306.637 409.497 302.756 409.497H259.12Z" fill="#555555"/>
<path d="M249.623 410.858C249.623 406.977 252.769 403.831 256.65 403.831H300.287C304.167 403.831 307.313 406.977 307.313 410.858V493.641C307.313 497.522 304.167 500.668 300.287 500.668H256.65C252.769 500.668 249.623 497.522 249.623 493.641V410.858Z" fill="#8AAADB"/>
<path fill-rule="evenodd" clip-rule="evenodd" d="M300.287 410.858H256.65V493.641L300.287 493.641V410.858ZM256.65 403.831C252.769 403.831 249.623 406.977 249.623 410.858V493.641C249.623 497.522 252.769 500.668 256.65 500.668H300.287C304.167 500.668 307.313 497.522 307.313 493.641V410.858C307.313 406.977 304.167 403.831 300.287 403.831H256.65Z" fill="#555555"/>
<path d="M247.154 405.191C247.154 401.31 250.3 398.164 254.181 398.164H297.817C301.698 398.164 304.844 401.31 304.844 405.191V487.974C304.844 491.855 301.698 495.001 297.817 495.001H254.181C250.3 495.001 247.154 491.855 247.154 487.974V405.191Z" fill="#8AAADB"/>
<path fill-rule="evenodd" clip-rule="evenodd" d="M297.817 405.191H254.181V487.974L297.817 487.974V405.191ZM254.181 398.164C250.3 398.164 247.154 401.31 247.154 405.191V487.974C247.154 491.855 250.3 495.001 254.181 495.001H297.817C301.698 495.001 304.844 491.855 304.844 487.974V405.191C304.844 401.31 301.698 398.164 297.817 398.164H254.181Z" fill="#555555"/>
<path d="M151.544 73.9903C151.544 70.1095 154.69 66.9634 158.571 66.9634H171.302C175.182 66.9634 178.329 70.1095 178.329 73.9903V99.0834C178.329 102.964 175.183 106.11 171.302 106.11H158.571C154.69 106.11 151.544 102.964 151.544 99.0834V73.9903Z" fill="#E29D9D"/>
<path fill-rule="evenodd" clip-rule="evenodd" d="M171.302 73.9903L158.571 73.9903L158.571 99.0834H171.302V73.9903ZM158.571 66.9634C154.69 66.9634 151.544 70.1095 151.544 73.9903V99.0834C151.544 102.964 154.69 106.11 158.571 106.11H171.302C175.183 106.11 178.329 102.964 178.329 99.0834V73.9903C178.329 70.1095 175.182 66.9634 171.302 66.9634H158.571Z" fill="#555555"/>
<path d="M149.898 70.2124C149.898 66.3316 153.044 63.1856 156.924 63.1856H169.655C173.536 63.1856 176.682 66.3316 176.682 70.2125V95.3056C176.682 99.1864 173.536 102.332 169.655 102.332H156.924C153.044 102.332 149.898 99.1864 149.898 95.3056V70.2124Z" fill="#E29D9D"/>
<path fill-rule="evenodd" clip-rule="evenodd" d="M169.655 70.2125H156.924L156.924 95.3056H169.655V70.2125ZM156.924 63.1856C153.044 63.1856 149.898 66.3316 149.898 70.2124V95.3056C149.898 99.1864 153.044 102.332 156.924 102.332H169.655C173.536 102.332 176.682 99.1864 176.682 95.3056V70.2125C176.682 66.3316 173.536 63.1856 169.655 63.1856H156.924Z" fill="#555555"/>
<path d="M148.251 66.4351C148.251 62.5543 151.397 59.4083 155.278 59.4083H168.009C171.89 59.4083 175.036 62.5543 175.036 66.4351V91.5282C175.036 95.409 171.89 98.5551 168.009 98.5551H155.278C151.397 98.5551 148.251 95.409 148.251 91.5282V66.4351Z" fill="#E29D9D"/>
<path fill-rule="evenodd" clip-rule="evenodd" d="M168.009 66.4351L155.278 66.4351L155.278 91.5282H168.009V66.4351ZM155.278 59.4083C151.397 59.4083 148.251 62.5543 148.251 66.4351V91.5282C148.251 95.409 151.397 98.5551 155.278 98.5551H168.009C171.89 98.5551 175.036 95.409 175.036 91.5282V66.4351C175.036 62.5543 171.89 59.4083 168.009 59.4083H155.278Z" fill="#555555"/>
<path d="M146.605 62.657C146.605 58.7762 149.751 55.6302 153.632 55.6302H166.363C170.244 55.6302 173.39 58.7762 173.39 62.657V87.7501C173.39 91.631 170.244 94.777 166.363 94.777H153.632C149.752 94.777 146.605 91.631 146.605 87.7501V62.657Z" fill="#E29D9D"/>
<path fill-rule="evenodd" clip-rule="evenodd" d="M166.363 62.657L153.632 62.657L153.632 87.7501H166.363V62.657ZM153.632 55.6302C149.751 55.6302 146.605 58.7762 146.605 62.657V87.7501C146.605 91.631 149.752 94.777 153.632 94.777H166.363C170.244 94.777 173.39 91.631 173.39 87.7501V62.657C173.39 58.7762 170.244 55.6302 166.363 55.6302H153.632Z" fill="#555555"/>
<path d="M186.57 38.9635C186.57 35.0827 189.716 31.9367 193.597 31.9367H231.052C234.933 31.9367 238.079 35.0827 238.079 38.9635V49.6341C238.079 53.5149 234.933 56.661 231.052 56.661H193.597C189.716 56.661 186.57 53.5149 186.57 49.6341V38.9635Z" fill="#E29D9D"/>
<path fill-rule="evenodd" clip-rule="evenodd" d="M231.052 38.9635L193.597 38.9635V49.6341H231.052V38.9635ZM193.597 31.9367C189.716 31.9367 186.57 35.0827 186.57 38.9635V49.6341C186.57 53.5149 189.716 56.661 193.597 56.661H231.052C234.933 56.661 238.079 53.5149 238.079 49.6341V38.9635C238.079 35.0827 234.933 31.9367 231.052 31.9367H193.597Z" fill="#555555"/>
<path d="M184.923 35.1857C184.923 31.3049 188.07 28.1588 191.95 28.1588H229.406C233.286 28.1588 236.432 31.3049 236.432 35.1857V45.8563C236.432 49.7371 233.286 52.8831 229.406 52.8831H191.95C188.07 52.8831 184.923 49.7371 184.923 45.8563V35.1857Z" fill="#E29D9D"/>
<path fill-rule="evenodd" clip-rule="evenodd" d="M229.406 35.1857L191.95 35.1857V45.8563L229.406 45.8563V35.1857ZM191.95 28.1588C188.07 28.1588 184.923 31.3049 184.923 35.1857V45.8563C184.923 49.7371 188.07 52.8831 191.95 52.8831H229.406C233.286 52.8831 236.432 49.7371 236.432 45.8563V35.1857C236.432 31.3049 233.286 28.1588 229.406 28.1588H191.95Z" fill="#555555"/>
<path d="M183.277 31.4084C183.277 27.5275 186.423 24.3815 190.304 24.3815H227.759C231.64 24.3815 234.786 27.5275 234.786 31.4083V42.0789C234.786 45.9598 231.64 49.1058 227.759 49.1058H190.304C186.423 49.1058 183.277 45.9598 183.277 42.079V31.4084Z" fill="#E29D9D"/>
<path fill-rule="evenodd" clip-rule="evenodd" d="M227.759 31.4083L190.304 31.4083V42.079L227.759 42.079V31.4083ZM190.304 24.3815C186.423 24.3815 183.277 27.5275 183.277 31.4084V42.079C183.277 45.9598 186.423 49.1058 190.304 49.1058H227.759C231.64 49.1058 234.786 45.9598 234.786 42.0789V31.4083C234.786 27.5275 231.64 24.3815 227.759 24.3815H190.304Z" fill="#555555"/>
<path d="M181.631 27.6305C181.631 23.7497 184.777 20.6036 188.658 20.6036H226.113C229.994 20.6036 233.14 23.7497 233.14 27.6305V38.3011C233.14 42.1819 229.994 45.3279 226.113 45.3279H188.658C184.777 45.3279 181.631 42.1819 181.631 38.3011V27.6305Z" fill="#E29D9D"/>
<path fill-rule="evenodd" clip-rule="evenodd" d="M226.113 27.6305L188.658 27.6305V38.3011L226.113 38.3011V27.6305ZM188.658 20.6036C184.777 20.6036 181.631 23.7497 181.631 27.6305V38.3011C181.631 42.1819 184.777 45.3279 188.658 45.3279H226.113C229.994 45.3279 233.14 42.1819 233.14 38.3011V27.6305C233.14 23.7497 229.994 20.6036 226.113 20.6036H188.658Z" fill="#555555"/>
<path d="M254.562 16.018C254.562 13.4307 256.659 11.3334 259.246 11.3334H295.205C297.792 11.3334 299.889 13.4307 299.889 16.018V21.0713C299.889 23.6585 297.792 25.7559 295.205 25.7559H259.246C256.659 25.7559 254.562 23.6585 254.562 21.0713V16.018Z" fill="#E29D9D"/>
<path fill-rule="evenodd" clip-rule="evenodd" d="M295.205 16.018H259.246L259.246 21.0713H295.205L295.205 16.018ZM259.246 11.3334C256.659 11.3334 254.562 13.4307 254.562 16.018V21.0713C254.562 23.6585 256.659 25.7559 259.246 25.7559H295.205C297.792 25.7559 299.889 23.6585 299.889 21.0713V16.018C299.889 13.4307 297.792 11.3334 295.205 11.3334H259.246Z" fill="#555555"/>
<path d="M252.915 12.2401C252.915 9.65292 255.013 7.55556 257.6 7.55556H293.559C296.146 7.55556 298.243 9.65291 298.243 12.2401V17.2935C298.243 19.8807 296.146 21.9781 293.559 21.9781H257.6C255.013 21.9781 252.915 19.8807 252.915 17.2935V12.2401Z" fill="#E29D9D"/>
<path fill-rule="evenodd" clip-rule="evenodd" d="M293.559 12.2401H257.6L257.6 17.2935H293.559L293.559 12.2401ZM257.6 7.55556C255.013 7.55556 252.915 9.65292 252.915 12.2401V17.2935C252.915 19.8807 255.013 21.9781 257.6 21.9781H293.559C296.146 21.9781 298.243 19.8807 298.243 17.2935V12.2401C298.243 9.65291 296.146 7.55556 293.559 7.55556H257.6Z" fill="#555555"/>
<path d="M251.269 8.46279C251.269 5.87557 253.366 3.77822 255.954 3.77822H291.912C294.5 3.77822 296.597 5.87557 296.597 8.46278V13.5162C296.597 16.1034 294.5 18.2007 291.912 18.2007H255.954C253.366 18.2007 251.269 16.1034 251.269 13.5162V8.46279Z" fill="#E29D9D"/>
<path fill-rule="evenodd" clip-rule="evenodd" d="M291.912 8.46278H255.954L255.954 13.5162H291.912L291.912 8.46278ZM255.954 3.77822C253.366 3.77822 251.269 5.87557 251.269 8.46279V13.5162C251.269 16.1034 253.366 18.2007 255.954 18.2007H291.912C294.5 18.2007 296.597 16.1034 296.597 13.5162V8.46278C296.597 5.87557 294.5 3.77822 291.912 3.77822H255.954Z" fill="#555555"/>
<path d="M249.624 4.68481C249.624 2.0976 251.721 0.000244141 254.308 0.000244141H290.267C292.854 0.000244141 294.951 2.09759 294.951 4.68481V9.73818C294.951 12.3254 292.854 14.4227 290.267 14.4227H254.308C251.721 14.4227 249.624 12.3254 249.624 9.73818V4.68481Z" fill="#E29D9D"/>
<path fill-rule="evenodd" clip-rule="evenodd" d="M290.267 4.68481H254.308L254.308 9.73818H290.267L290.267 4.68481ZM254.308 0.000244141C251.721 0.000244141 249.624 2.0976 249.624 4.68481V9.73818C249.624 12.3254 251.721 14.4227 254.308 14.4227H290.267C292.854 14.4227 294.951 12.3254 294.951 9.73818V4.68481C294.951 2.09759 292.854 0.000244141 290.267 0.000244141H254.308Z" fill="#555555"/>
<path d="M139.182 133.74C139.182 129.859 142.328 126.713 146.209 126.713H191.905C195.786 126.713 198.932 129.859 198.932 133.74V239.187C198.932 243.068 195.786 246.214 191.905 246.214H146.209C142.328 246.214 139.182 243.068 139.182 239.187V133.74Z" fill="#E29D9D"/>
<path fill-rule="evenodd" clip-rule="evenodd" d="M191.905 133.74H146.209V239.187L191.905 239.187L191.905 133.74ZM146.209 126.713C142.328 126.713 139.182 129.859 139.182 133.74V239.187C139.182 243.068 142.328 246.214 146.209 246.214H191.905C195.786 246.214 198.932 243.068 198.932 239.187V133.74C198.932 129.859 195.786 126.713 191.905 126.713H146.209Z" fill="#555555"/>
<path d="M137.536 129.962C137.536 126.081 140.682 122.935 144.563 122.935H190.259C194.14 122.935 197.286 126.081 197.286 129.962V235.409C197.286 239.29 194.14 242.436 190.259 242.436H144.563C140.682 242.436 137.536 239.29 137.536 235.409V129.962Z" fill="#E29D9D"/>
<path fill-rule="evenodd" clip-rule="evenodd" d="M190.259 129.962H144.563V235.409L190.259 235.409L190.259 129.962ZM144.563 122.935C140.682 122.935 137.536 126.081 137.536 129.962V235.409C137.536 239.29 140.682 242.436 144.563 242.436H190.259C194.14 242.436 197.286 239.29 197.286 235.409V129.962C197.286 126.081 194.14 122.935 190.259 122.935H144.563Z" fill="#555555"/>
<path d="M135.889 126.185C135.889 122.304 139.035 119.158 142.916 119.158H188.613C192.494 119.158 195.64 122.304 195.64 126.185V231.632C195.64 235.513 192.494 238.659 188.613 238.659H142.916C139.035 238.659 135.889 235.513 135.889 231.632V126.185Z" fill="#E29D9D"/>
<path fill-rule="evenodd" clip-rule="evenodd" d="M188.613 126.185H142.916V231.632L188.613 231.632L188.613 126.185ZM142.916 119.158C139.035 119.158 135.889 122.304 135.889 126.185V231.632C135.889 235.513 139.035 238.659 142.916 238.659H188.613C192.494 238.659 195.64 235.513 195.64 231.632V126.185C195.64 122.304 192.494 119.158 188.613 119.158H142.916Z" fill="#555555"/>
<path d="M134.243 122.407C134.243 118.526 137.389 115.38 141.27 115.38H186.967C190.848 115.38 193.994 118.526 193.994 122.407V227.854C193.994 231.735 190.848 234.881 186.967 234.881H141.27C137.389 234.881 134.243 231.735 134.243 227.854V122.407Z" fill="#E29D9D"/>
<path fill-rule="evenodd" clip-rule="evenodd" d="M186.967 122.407H141.27V227.854L186.967 227.854L186.967 122.407ZM141.27 115.38C137.389 115.38 134.243 118.526 134.243 122.407V227.854C134.243 231.735 137.389 234.881 141.27 234.881H186.967C190.848 234.881 193.994 231.735 193.994 227.854V122.407C193.994 118.526 190.848 115.38 186.967 115.38H141.27Z" fill="#555555"/>
<path d="M54.7063 298.569C54.7063 294.688 57.8523 291.542 61.7331 291.542H134.214C138.095 291.542 141.241 294.688 141.241 298.569V397.835C141.241 401.715 138.095 404.861 134.214 404.861H61.7331C57.8523 404.861 54.7063 401.715 54.7063 397.835V298.569Z" fill="#8AAADB"/>
<path fill-rule="evenodd" clip-rule="evenodd" d="M134.214 298.569H61.7331L61.7331 397.835L134.214 397.835L134.214 298.569ZM61.7331 291.542C57.8523 291.542 54.7063 294.688 54.7063 298.569V397.835C54.7063 401.715 57.8523 404.861 61.7331 404.861H134.214C138.095 404.861 141.241 401.715 141.241 397.835V298.569C141.241 294.688 138.095 291.542 134.214 291.542H61.7331Z" fill="#555555"/>
<path d="M53.0603 294.791C53.0603 290.91 56.2063 287.764 60.0871 287.764H132.568C136.449 287.764 139.595 290.91 139.595 294.791V394.057C139.595 397.938 136.449 401.084 132.568 401.084H60.0871C56.2063 401.084 53.0603 397.938 53.0603 394.057V294.791Z" fill="#8AAADB"/>
<path fill-rule="evenodd" clip-rule="evenodd" d="M132.568 294.791H60.0871L60.0871 394.057L132.568 394.057L132.568 294.791ZM60.0871 287.764C56.2063 287.764 53.0603 290.91 53.0603 294.791V394.057C53.0603 397.938 56.2063 401.084 60.0871 401.084H132.568C136.449 401.084 139.595 397.938 139.595 394.057V294.791C139.595 290.91 136.449 287.764 132.568 287.764H60.0871Z" fill="#555555"/>
<path d="M51.4141 291.013C51.4141 287.133 54.5601 283.987 58.4409 283.987H130.922C134.803 283.987 137.949 287.133 137.949 291.013V390.279C137.949 394.16 134.803 397.306 130.922 397.306H58.4409C54.5601 397.306 51.4141 394.16 51.4141 390.279V291.013Z" fill="#8AAADB"/>
<path fill-rule="evenodd" clip-rule="evenodd" d="M130.922 291.013H58.4409L58.4409 390.279L130.922 390.279L130.922 291.013ZM58.4409 283.987C54.5601 283.987 51.4141 287.133 51.4141 291.013V390.279C51.4141 394.16 54.5601 397.306 58.4409 397.306H130.922C134.803 397.306 137.949 394.16 137.949 390.279V291.013C137.949 287.133 134.803 283.987 130.922 283.987H58.4409Z" fill="#555555"/>
<path d="M49.7678 287.236C49.7678 283.355 52.9138 280.209 56.7947 280.209H129.276C133.157 280.209 136.303 283.355 136.303 287.236V386.502C136.303 390.382 133.157 393.528 129.276 393.528H56.7947C52.9138 393.528 49.7678 390.382 49.7678 386.502V287.236Z" fill="#8AAADB"/>
<path fill-rule="evenodd" clip-rule="evenodd" d="M129.276 287.236H56.7947L56.7947 386.502L129.276 386.502L129.276 287.236ZM56.7947 280.209C52.9138 280.209 49.7678 283.355 49.7678 287.236V386.502C49.7678 390.382 52.9138 393.528 56.7947 393.528H129.276C133.157 393.528 136.303 390.382 136.303 386.502V287.236C136.303 283.355 133.157 280.209 129.276 280.209H56.7947Z" fill="#555555"/>
</svg>
